<svg width="194" height="22" viewBox="0 0 194 22" fill="none" xmlns="http://www.w3.org/2000/svg">
<g id="logo">
<path id="SVGID_7_" d="M27.2 1.09998L18 20.8H22.6L24.1 17.3H30.8L32.3 20.8H37L27.8 1.09998H27.2ZM25.5 13.8L27.4 9.09998L29.3 13.8H25.5Z" fill="white"/>
<path id="SVGID_6_" d="M42.7 17V12.5C43.2 12.4 43.7 12.4 44.4 12.4C46.8 12.4 48 13.3 48 14.7C48 16.2 46.9 17 44.6 17C43.7 17.1 43.3 17.1 42.7 17ZM42.7 9.29999V5.19999C43.3 5.09999 43.9 4.99999 44.8 4.99999C46.7 4.99999 47.7 5.99999 47.7 7.09999C47.7 8.49999 46.6 9.29999 44.4 9.29999C43.6 9.29999 43.2 9.29999 42.7 9.29999ZM38.3 1.49999V20.6C40.2 20.8 42.4 21 44.1 21C50 21 52.9 18.3 52.9 15.3C52.9 13.1 51.6 11.5 49 10.7C51.2 9.79999 52.4 8.39999 52.4 6.39999C52.4 3.69999 49.5 1.09999 43.8 1.09999C42.2 0.999988 39.7 1.19999 38.3 1.49999Z" fill="white"/>
<path id="SVGID_5_" d="M54.6 1.20007V20.8001H67V16.6001H59.2V12.8001H66.3V8.90007H59.2V5.40007H67V1.20007H54.6Z" fill="white"/>
<path id="SVGID_4_" d="M73.9 10.7V5.3C74.5 5.2 75 5.2 75.7 5.2C77.6 5.2 78.9 6.2 78.9 7.8C78.9 9.8 77.5 10.8 75.4 10.8C74.8 10.7 74.5 10.7 73.9 10.7ZM69.4 1.4V20.8H73.9V14.4C74.5 14.4 74.9 14.5 75.6 14.5C75.9 14.5 76.1 14.5 76.4 14.5L79.7 20.9H84.8L80.2 13.4C82.3 12.1 83.6 10.1 83.6 7.7C83.6 4.1 81.2 1.2 75.1 1.2C72.8 1.1 71 1.2 69.4 1.4Z" fill="white"/>
<path id="SVGID_3_" d="M86.7 1.20007V20.8001H99V16.6001H91.2V1.20007H86.7Z" fill="white"/>
<path id="SVGID_2_" d="M101.1 1.20007V20.8001H113.5V16.6001H105.6V12.8001H112.8V8.90007H105.6V5.40007H113.5V1.20007H101.1Z" fill="white"/>
<path id="SVGID_1_" d="M119.8 10.7V5.3C120.4 5.2 120.9 5.2 121.6 5.2C123.5 5.2 124.8 6.2 124.8 7.8C124.8 9.8 123.4 10.8 121.3 10.8C120.7 10.7 120.4 10.7 119.8 10.7ZM115.3 1.4V20.8H119.8V14.4C120.4 14.4 120.8 14.5 121.5 14.5C121.8 14.5 122 14.5 122.3 14.5L125.6 20.9H130.7L126.1 13.4C128.2 12.1 129.5 10.1 129.5 7.7C129.5 4.1 127.1 1.2 121 1.2C118.8 1.1 116.9 1.2 115.3 1.4Z" fill="white"/>
<path id="Vector" d="M134.1 17.5C135.1 17.5 135.8 18.3 135.8 19.2C135.8 20.2 135 21 134.1 21C133.1 21 132.4 20.2 132.4 19.2C132.3 18.3 133.1 17.5 134.1 17.5Z" fill="white"/>
<path id="Vector_2" d="M145.9 21.1C139.7 21.1 135.4 16.8 135.4 11C135.4 5.20002 139.8 0.900024 145.9 0.900024C148.3 0.900024 150.5 1.70003 152.2 2.70003L151.1 5.50002C149.6 4.60002 147.6 4.00002 145.9 4.00002C141.6 4.00002 139 6.90002 139 11C139 15.1 141.7 18 146 18C147.7 18 149.8 17.4 151.3 16.5L152.3 19.3C150.7 20.3 148.4 21.1 145.9 21.1Z" fill="white"/>
<path id="Vector_3" d="M162.5 21.1C156.8 21.1 152.7 16.8 152.7 11C152.7 5.20002 157 0.900024 162.7 0.900024C168.4 0.900024 172.5 5.20002 172.5 11C172.4 16.8 168.1 21.1 162.5 21.1ZM162.6 3.90002C158.9 3.90002 156.3 6.90002 156.3 11C156.3 15.1 158.9 18.1 162.6 18.1C166.3 18.1 168.9 15 168.9 11C168.9 6.90002 166.3 3.90002 162.6 3.90002Z" fill="white"/>
<path id="Vector_4" d="M190.6 20.8L190.4 9.10003L184.2 18.4H183.8L177.6 9.00002L177.4 20.8H174.1L174.9 1.00002L175.4 0.900024L184.1 13.9L192.6 0.900024L193.1 1.00002L193.9 20.8H190.6Z" fill="white"/>
<path id="Vector_5" d="M12.1 1.20007V8.90007H4.60001V1.20007H0.100006V8.90007L2.10001 10.9001L0.100006 12.8001V20.8001H4.60001V12.9001H12.1V20.8001H16.7V1.20007H12.1Z" fill="white"/>
</g>
</svg>
