<svg width="14" height="14" viewBox="0 0 14 14" fill="none" xmlns="http://www.w3.org/2000/svg">
<path id="Vector" d="M12.8001 13L9.90476 10.1047M9.90476 10.1047C10.4 9.60946 10.7929 9.02151 11.0609 8.37443C11.3289 7.72735 11.4669 7.03381 11.4669 6.33342C11.4669 5.63302 11.3289 4.93949 11.0609 4.29241C10.7929 3.64533 10.4 3.05737 9.90476 2.56212C9.40951 2.06687 8.82155 1.67401 8.17447 1.40598C7.52739 1.13795 6.83386 1 6.13346 1C5.43307 1 4.73953 1.13795 4.09245 1.40598C3.44537 1.67401 2.85742 2.06687 2.36217 2.56212C1.36196 3.56233 0.800049 4.91891 0.800049 6.33342C0.800049 7.74793 1.36196 9.1045 2.36217 10.1047C3.36238 11.1049 4.71895 11.6668 6.13346 11.6668C7.54797 11.6668 8.90455 11.1049 9.90476 10.1047Z" stroke="#888888" stroke-width="1.4" stroke-linecap="round" stroke-linejoin="round"/>
</svg>
